<svg width="23" height="24" viewBox="0 0 23 24" fill="none" xmlns="http://www.w3.org/2000/svg">
<path fill-rule="evenodd" clip-rule="evenodd" d="M11.2505 1.45312C5.29385 1.45312 0.469238 6.27773 0.469238 12.2344C0.469238 17.0051 3.55537 21.0346 7.84092 22.4631C8.37998 22.5574 8.58213 22.234 8.58213 21.951C8.58213 21.6949 8.56865 20.8459 8.56865 19.943C5.85986 20.4416 5.15908 19.2826 4.94346 18.6762C4.82217 18.3662 4.29658 17.4094 3.83838 17.1533C3.46104 16.9512 2.92197 16.4525 3.8249 16.4391C4.67393 16.4256 5.28037 17.2207 5.48252 17.5441C6.45283 19.1748 8.00264 18.7166 8.62256 18.4336C8.7169 17.7328 8.9999 17.2611 9.30986 16.9916C6.91104 16.7221 4.40439 15.7922 4.40439 11.6684C4.40439 10.4959 4.82217 9.52558 5.50947 8.7709C5.40166 8.50137 5.02432 7.39629 5.61729 5.91387C5.61729 5.91387 6.52022 5.63086 8.58213 7.01895C9.44463 6.77637 10.361 6.65508 11.2774 6.65508C12.1938 6.65508 13.1103 6.77637 13.9728 7.01895C16.0347 5.61738 16.9376 5.91387 16.9376 5.91387C17.5306 7.39629 17.1532 8.50137 17.0454 8.7709C17.7327 9.52558 18.1505 10.4824 18.1505 11.6684C18.1505 15.8057 15.6304 16.7221 13.2315 16.9916C13.6224 17.3285 13.9593 17.9754 13.9593 18.9861C13.9593 20.4281 13.9458 21.5871 13.9458 21.951C13.9458 22.234 14.148 22.5709 14.687 22.4631C18.9456 21.0346 22.0317 16.9916 22.0317 12.2344C22.0317 6.27773 17.2071 1.45312 11.2505 1.45312V1.45312Z" fill="#3B3B3B"/>
</svg>
