<svg width="45" height="45" viewBox="0 0 45 45" fill="none" xmlns="http://www.w3.org/2000/svg">
<path fill-rule="evenodd" clip-rule="evenodd" d="M4.6875 17.4525L27.9188 11.3944V33.6057L18.4669 31.0088C18.6239 33.3412 16.9086 35.3803 14.5837 35.625C12.216 35.3688 10.4888 33.2648 10.6987 30.8925V29.2782L4.6875 27.5475V17.4525Z" stroke="black" stroke-width="2" stroke-linecap="round" stroke-linejoin="round"/>
<path d="M40.3125 22.3881C40.8648 22.3881 41.3125 21.9404 41.3125 21.3881C41.3125 20.8358 40.8648 20.3881 40.3125 20.3881V22.3881ZM36.8175 20.3881C36.2652 20.3881 35.8175 20.8358 35.8175 21.3881C35.8175 21.9404 36.2652 22.3881 36.8175 22.3881V20.3881ZM35.5059 32.0863C35.8939 32.4793 36.527 32.4834 36.9201 32.0954C37.3131 31.7074 37.3171 31.0742 36.9291 30.6812L35.5059 32.0863ZM34.4616 28.1818C34.0736 27.7888 33.4405 27.7847 33.0474 28.1727C32.6544 28.5608 32.6504 29.1939 33.0384 29.5869L34.4616 28.1818ZM36.9323 12.0975C37.3207 11.7047 37.3171 11.0716 36.9243 10.6833C36.5316 10.295 35.8985 10.2986 35.5102 10.6913L36.9323 12.0975ZM33.0389 13.1907C32.6506 13.5834 32.6542 14.2165 33.0469 14.6048C33.4396 14.9932 34.0728 14.9896 34.4611 14.5968L33.0389 13.1907ZM28.9188 33.6056C28.9188 33.0533 28.471 32.6056 27.9188 32.6056C27.3665 32.6056 26.9188 33.0533 26.9188 33.6056H28.9188ZM26.9188 35.625C26.9188 36.1773 27.3665 36.625 27.9188 36.625C28.471 36.625 28.9188 36.1773 28.9188 35.625H26.9188ZM26.9188 11.3944C26.9188 11.9467 27.3665 12.3944 27.9188 12.3944C28.471 12.3944 28.9188 11.9467 28.9188 11.3944H26.9188ZM28.9188 9.375C28.9188 8.82272 28.471 8.375 27.9188 8.375C27.3665 8.375 26.9188 8.82272 26.9188 9.375H28.9188ZM3.6875 17.4525C3.6875 18.0048 4.13522 18.4525 4.6875 18.4525C5.23978 18.4525 5.6875 18.0048 5.6875 17.4525H3.6875ZM5.6875 15.4331C5.6875 14.8808 5.23978 14.4331 4.6875 14.4331C4.13522 14.4331 3.6875 14.8808 3.6875 15.4331H5.6875ZM3.6875 29.5669C3.6875 30.1192 4.13522 30.5669 4.6875 30.5669C5.23978 30.5669 5.6875 30.1192 5.6875 29.5669H3.6875ZM5.6875 27.5475C5.6875 26.9952 5.23978 26.5475 4.6875 26.5475C4.13522 26.5475 3.6875 26.9952 3.6875 27.5475H5.6875ZM10.9162 28.3021C10.3771 28.182 9.84278 28.5216 9.72268 29.0607C9.60258 29.5997 9.94223 30.1341 10.4813 30.2542L10.9162 28.3021ZM18.2494 31.9848C18.7885 32.1049 19.3229 31.7653 19.4429 31.2262C19.563 30.6871 19.2234 30.1528 18.6843 30.0327L18.2494 31.9848ZM40.3125 20.3881H36.8175V22.3881H40.3125V20.3881ZM36.9291 30.6812L34.4616 28.1818L33.0384 29.5869L35.5059 32.0863L36.9291 30.6812ZM35.5102 10.6913L33.0389 13.1907L34.4611 14.5968L36.9323 12.0975L35.5102 10.6913ZM26.9188 33.6056V35.625H28.9188V33.6056H26.9188ZM28.9188 11.3944V9.375H26.9188V11.3944H28.9188ZM5.6875 17.4525V15.4331H3.6875V17.4525H5.6875ZM5.6875 29.5669V27.5475H3.6875V29.5669H5.6875ZM10.4813 30.2542L18.2494 31.9848L18.6843 30.0327L10.9162 28.3021L10.4813 30.2542Z" fill="black"/>
</svg>
