<svg width="22" height="19" viewBox="0 0 22 19" fill="none" xmlns="http://www.w3.org/2000/svg">
<path d="M14.7731 9.97294L13.6501 8.84994C13.8001 8.02178 13.5638 7.27719 12.9413 6.61619C12.319 5.95536 11.5552 5.69994 10.6501 5.84994L9.52707 4.72694C9.75274 4.62561 9.98416 4.54961 10.2213 4.49894C10.4585 4.44828 10.7181 4.42294 11.0001 4.42294C12.1347 4.42294 13.0979 4.81878 13.8896 5.61044C14.6812 6.40211 15.0771 7.36528 15.0771 8.49994C15.0771 8.78194 15.0517 9.04478 15.0011 9.28844C14.9504 9.53194 14.8744 9.76011 14.7731 9.97294ZM17.9538 13.0844L16.8501 12.0499C17.4834 11.5666 18.0459 11.0374 18.5376 10.4624C19.0292 9.88744 19.4501 9.23328 19.8001 8.49994C18.9667 6.81661 17.7709 5.47911 16.2126 4.48744C14.6542 3.49578 12.9167 2.99994 11.0001 2.99994C10.5167 2.99994 10.0417 3.03328 9.57508 3.09994C9.10841 3.16661 8.65007 3.26661 8.20007 3.39994L7.03482 2.23469C7.66682 1.98336 8.31233 1.79811 8.97132 1.67894C9.63033 1.55961 10.3066 1.49994 11.0001 1.49994C13.3436 1.49994 15.457 2.14611 17.3403 3.43844C19.2237 4.73077 20.5974 6.41794 21.4616 8.49994C21.0911 9.39344 20.6126 10.2274 20.0261 11.0019C19.4394 11.7763 18.7487 12.4704 17.9538 13.0844ZM18.7616 18.8692L14.7156 14.8537C14.2027 15.0435 13.6344 15.1987 13.0106 15.3192C12.3869 15.4397 11.7167 15.4999 11.0001 15.4999C8.65007 15.4999 6.53666 14.8538 4.65982 13.5614C2.78282 12.2691 1.40907 10.5819 0.538574 8.49994C0.907741 7.61661 1.38466 6.79261 1.96932 6.02794C2.55399 5.26311 3.19757 4.59994 3.90007 4.03844L1.13082 1.23844L2.18482 0.184692L19.8153 17.8152L18.7616 18.8692ZM4.95407 5.09219C4.42574 5.51269 3.91191 6.01819 3.41257 6.60869C2.91324 7.19902 2.50907 7.82944 2.20007 8.49994C3.03341 10.1833 4.22924 11.5208 5.78757 12.5124C7.34591 13.5041 9.08341 13.9999 11.0001 13.9999C11.4552 13.9999 11.9085 13.9614 12.3598 13.8844C12.811 13.8076 13.1937 13.7282 13.5078 13.6462L12.2423 12.3499C12.0718 12.4191 11.8744 12.4742 11.6501 12.5152C11.4257 12.5564 11.2091 12.5769 11.0001 12.5769C9.86541 12.5769 8.90224 12.1811 8.11058 11.3894C7.31891 10.5978 6.92307 9.63461 6.92307 8.49994C6.92307 8.29744 6.94366 8.08561 6.98483 7.86444C7.02583 7.64328 7.08091 7.44103 7.15007 7.25769L4.95407 5.09219Z" fill="black"/>
</svg>
