<svg width="32" height="32" viewBox="0 0 32 32" fill="none" xmlns="http://www.w3.org/2000/svg">
<path d="M15.6 12.0627C16.1385 12.0627 16.575 11.6262 16.575 11.0877C16.575 10.5492 16.1385 10.1127 15.6 10.1127V12.0627ZM9.47299 22.1708C9.95365 22.4136 10.5401 22.2207 10.7828 21.74C11.0256 21.2593 10.8327 20.6729 10.352 20.4302L9.47299 22.1708ZM14.625 11.0877C14.625 11.6262 15.0615 12.0627 15.6 12.0627C16.1385 12.0627 16.575 11.6262 16.575 11.0877H14.625ZM16.575 6.5C16.575 5.96152 16.1385 5.525 15.6 5.525C15.0615 5.525 14.625 5.96152 14.625 6.5H16.575ZM15.5969 10.1127C15.0584 10.1144 14.6233 10.5524 14.625 11.0908C14.6267 11.6293 15.0647 12.0644 15.6031 12.0627L15.5969 10.1127ZM18.9445 12.4952C19.4648 12.6339 19.9991 12.3247 20.1379 11.8044C20.2766 11.2841 19.9674 10.7498 19.4471 10.611L18.9445 12.4952ZM8.51089 8.36112C8.27154 7.87876 7.68648 7.68176 7.20412 7.92111C6.72176 8.16046 6.52476 8.74552 6.76411 9.22788L8.51089 8.36112ZM8.63481 12.9979C8.87416 13.4802 9.45922 13.6772 9.94158 13.4379C10.4239 13.1985 10.6209 12.6135 10.3816 12.1311L8.63481 12.9979ZM9.19543 25.3394C8.83057 25.7354 8.85584 26.3522 9.25187 26.7171C9.6479 27.0819 10.2647 27.0567 10.6296 26.6606L9.19543 25.3394ZM13.9771 23.0271C14.3419 22.6311 14.3167 22.0143 13.9206 21.6494C13.5246 21.2846 12.9078 21.3098 12.5429 21.7059L13.9771 23.0271ZM25.4173 10.6015C25.782 10.2054 25.7565 9.58854 25.3604 9.22382C24.9643 8.85909 24.3474 8.88456 23.9827 9.2807L25.4173 10.6015ZM21.3567 12.1329C20.992 12.529 21.0175 13.1459 21.4136 13.5106C21.8097 13.8753 22.4266 13.8498 22.7913 13.4537L21.3567 12.1329ZM12.5429 21.7059C12.1781 22.1019 12.2033 22.7187 12.5994 23.0836C12.9954 23.4484 13.6122 23.4232 13.9771 23.0271L12.5429 21.7059ZM16.38 18.98L17.0971 19.6406L17.098 19.6396L16.38 18.98ZM17.7905 17.4447L17.0733 16.7842L17.0725 16.7851L17.7905 17.4447ZM22.7912 13.4538C23.156 13.0577 23.1306 12.4409 22.7345 12.0761C22.3384 11.7113 21.7216 11.7367 21.3568 12.1328L22.7912 13.4538ZM13.4199 21.4047C12.8887 21.3164 12.3865 21.6754 12.2982 22.2066C12.2099 22.7378 12.5689 23.24 13.1001 23.3283L13.4199 21.4047ZM15.6 22.5589V21.5839H15.5993L15.6 22.5589ZM24.7 16.8233H25.675C25.675 16.8002 25.6742 16.7771 25.6725 16.7541L24.7 16.8233ZM22.5302 11.9316C22.0542 11.6797 21.4642 11.8612 21.2123 12.3371C20.9604 12.8131 21.1419 13.4031 21.6178 13.655L22.5302 11.9316ZM12.9632 18.7417C13.2781 19.1784 13.8875 19.2772 14.3243 18.9622C14.761 18.6473 14.8598 18.0379 14.5448 17.6011L12.9632 18.7417ZM13.5681 15.7881L14.4378 16.2289L13.5681 15.7881ZM15.6 14.5288L15.5988 13.5538L15.5922 13.5538L15.6 14.5288ZM16.2798 15.6983C16.7361 15.9841 17.3378 15.8459 17.6236 15.3895C17.9094 14.9332 17.7712 14.3315 17.3148 14.0457L16.2798 15.6983ZM15.6 10.1127C12.9321 10.1127 10.4707 10.7922 8.64546 11.9426C6.83288 13.085 5.525 14.7858 5.525 16.8233H7.475C7.475 15.6927 8.20422 14.5257 9.68519 13.5923C11.1535 12.6669 13.2421 12.0627 15.6 12.0627V10.1127ZM5.525 16.8233C5.525 19.1548 7.22765 21.0369 9.47299 22.1708L10.352 20.4302C8.43735 19.4633 7.475 18.1136 7.475 16.8233H5.525ZM16.575 11.0877V6.5H14.625V11.0877H16.575ZM15.6031 12.0627C16.7311 12.0591 17.8546 12.2045 18.9445 12.4952L19.4471 10.611C18.1912 10.2761 16.8966 10.1085 15.5969 10.1127L15.6031 12.0627ZM6.76411 9.22788L8.63481 12.9979L10.3816 12.1311L8.51089 8.36112L6.76411 9.22788ZM10.6296 26.6606L13.9771 23.0271L12.5429 21.7059L9.19543 25.3394L10.6296 26.6606ZM23.9827 9.2807L21.3567 12.1329L22.7913 13.4537L25.4173 10.6015L23.9827 9.2807ZM13.9771 23.0271L17.0971 19.6406L15.6629 18.3194L12.5429 21.7059L13.9771 23.0271ZM17.098 19.6396L18.5085 18.1043L17.0725 16.7851L15.662 18.3204L17.098 19.6396ZM18.5077 18.1052L22.7912 13.4538L21.3568 12.1328L17.0733 16.7842L18.5077 18.1052ZM13.1001 23.3283C13.9265 23.4657 14.7629 23.5345 15.6007 23.5339L15.5993 21.5839C14.8692 21.5844 14.1402 21.5245 13.4199 21.4047L13.1001 23.3283ZM15.6 23.5339C18.2679 23.5339 20.7293 22.8544 22.5545 21.704C24.3671 20.5616 25.675 18.8608 25.675 16.8233H23.725C23.725 17.9539 22.9958 19.1209 21.5148 20.0543C20.0465 20.9797 17.9579 21.5839 15.6 21.5839V23.5339ZM25.6725 16.7541C25.5272 14.7121 24.3394 12.8893 22.5302 11.9316L21.6178 13.655C22.8325 14.298 23.6299 15.5217 23.7275 16.8925L25.6725 16.7541ZM14.5448 17.6011C14.2554 17.1997 14.2141 16.6703 14.4378 16.2289L12.6984 15.3474C12.1451 16.4393 12.2472 17.7487 12.9632 18.7417L14.5448 17.6011ZM14.4378 16.2289C14.6615 15.7874 15.1129 15.5077 15.6078 15.5038L15.5922 13.5538C14.3682 13.5636 13.2518 14.2555 12.6984 15.3474L14.4378 16.2289ZM15.6012 15.5038C15.8412 15.5035 16.0764 15.5709 16.2798 15.6983L17.3148 14.0457C16.8005 13.7235 16.2057 13.553 15.5988 13.5538L15.6012 15.5038Z" fill="#A0A0A0"/>
</svg>
