<svg width="158" height="22" viewBox="0 0 158 22" fill="none" xmlns="http://www.w3.org/2000/svg">
<path d="M9.296 5.796L3.248 20.02C3.11733 20.3747 2.912 20.6547 2.632 20.86C2.37067 21.0467 2.08133 21.14 1.764 21.14C1.26 21.14 0.886667 21 0.644 20.72C0.401333 20.44 0.28 20.0947 0.28 19.684C0.28 19.516 0.308 19.3387 0.364 19.152L7.336 2.408C7.48533 2.03467 7.70933 1.74533 8.008 1.54C8.32533 1.33467 8.66133 1.25067 9.016 1.288C9.352 1.288 9.66 1.39067 9.94 1.596C10.2387 1.78267 10.4533 2.05333 10.584 2.408L17.472 18.816C17.5653 19.0587 17.612 19.2827 17.612 19.488C17.612 19.992 17.444 20.3933 17.108 20.692C16.7907 20.9907 16.436 21.14 16.044 21.14C15.708 21.14 15.4 21.0373 15.12 20.832C14.8587 20.6267 14.6533 20.3467 14.504 19.992L8.484 5.964L9.296 5.796ZM4.116 16.604L5.656 13.384H13.216L13.748 16.604H4.116ZM26.7108 5.74C28.0921 5.74 29.1375 6.02933 29.8468 6.608C30.5748 7.18667 31.0695 7.96133 31.3308 8.932C31.6108 9.884 31.7508 10.948 31.7508 12.124V19.292C31.7508 19.7773 31.5921 20.188 31.2748 20.524C30.9575 20.8413 30.5561 21 30.0708 21C29.5855 21 29.1841 20.8413 28.8668 20.524C28.5495 20.188 28.3908 19.7773 28.3908 19.292V12.124C28.3908 11.508 28.3068 10.9573 28.1388 10.472C27.9895 9.968 27.7095 9.56667 27.2988 9.268C26.8881 8.96933 26.3001 8.82 25.5348 8.82C24.7881 8.82 24.1535 8.96933 23.6308 9.268C23.1268 9.56667 22.7348 9.968 22.4548 10.472C22.1935 10.9573 22.0628 11.508 22.0628 12.124V19.292C22.0628 19.7773 21.9041 20.188 21.5868 20.524C21.2695 20.8413 20.8681 21 20.3828 21C19.8975 21 19.4961 20.8413 19.1788 20.524C18.8615 20.188 18.7028 19.7773 18.7028 19.292V7.728C18.7028 7.24267 18.8615 6.84133 19.1788 6.524C19.4961 6.188 19.8975 6.02 20.3828 6.02C20.8681 6.02 21.2695 6.188 21.5868 6.524C21.9041 6.84133 22.0628 7.24267 22.0628 7.728V8.932L21.6428 8.848C21.8108 8.53067 22.0535 8.19467 22.3708 7.84C22.6881 7.46667 23.0615 7.12133 23.4908 6.804C23.9201 6.48667 24.4055 6.23467 24.9468 6.048C25.4881 5.84267 26.0761 5.74 26.7108 5.74ZM37.5465 19.292C37.5465 19.7773 37.3878 20.188 37.0705 20.524C36.7532 20.8413 36.3518 21 35.8665 21C35.3812 21 34.9798 20.8413 34.6625 20.524C34.3452 20.188 34.1865 19.7773 34.1865 19.292V7.728C34.1865 7.24267 34.3452 6.84133 34.6625 6.524C34.9798 6.188 35.3812 6.02 35.8665 6.02C36.3518 6.02 36.7532 6.188 37.0705 6.524C37.3878 6.84133 37.5465 7.24267 37.5465 7.728V19.292ZM35.8385 4.2C35.2038 4.2 34.7558 4.09733 34.4945 3.892C34.2332 3.68667 34.1025 3.32267 34.1025 2.8V2.268C34.1025 1.72667 34.2425 1.36267 34.5225 1.176C34.8212 0.970666 35.2692 0.867999 35.8665 0.867999C36.5198 0.867999 36.9772 0.970666 37.2385 1.176C37.4998 1.38133 37.6305 1.74533 37.6305 2.268V2.8C37.6305 3.34133 37.4905 3.71467 37.2105 3.92C36.9305 4.10667 36.4732 4.2 35.8385 4.2ZM47.8677 5.74C49.361 5.74 50.4624 6.104 51.1717 6.832C51.881 7.54133 52.3477 8.46533 52.5717 9.604L52.0957 9.352L52.3197 8.904C52.5437 8.47467 52.889 8.01733 53.3557 7.532C53.8224 7.028 54.3824 6.608 55.0357 6.272C55.7077 5.91733 56.4544 5.74 57.2757 5.74C58.6197 5.74 59.637 6.02933 60.3277 6.608C61.037 7.18667 61.5224 7.96133 61.7837 8.932C62.045 9.884 62.1757 10.948 62.1757 12.124V19.292C62.1757 19.7773 62.017 20.188 61.6997 20.524C61.3824 20.8413 60.981 21 60.4957 21C60.0104 21 59.609 20.8413 59.2917 20.524C58.9744 20.188 58.8157 19.7773 58.8157 19.292V12.124C58.8157 11.508 58.741 10.9573 58.5917 10.472C58.4424 9.968 58.1717 9.56667 57.7797 9.268C57.3877 8.96933 56.8277 8.82 56.0997 8.82C55.3904 8.82 54.7837 8.96933 54.2797 9.268C53.7757 9.56667 53.393 9.968 53.1317 10.472C52.889 10.9573 52.7677 11.508 52.7677 12.124V19.292C52.7677 19.7773 52.609 20.188 52.2917 20.524C51.9744 20.8413 51.573 21 51.0877 21C50.6024 21 50.201 20.8413 49.8837 20.524C49.5664 20.188 49.4077 19.7773 49.4077 19.292V12.124C49.4077 11.508 49.333 10.9573 49.1837 10.472C49.0344 9.968 48.7637 9.56667 48.3717 9.268C47.9797 8.96933 47.4197 8.82 46.6917 8.82C45.9824 8.82 45.3757 8.96933 44.8717 9.268C44.3677 9.56667 43.985 9.968 43.7237 10.472C43.481 10.9573 43.3597 11.508 43.3597 12.124V19.292C43.3597 19.7773 43.201 20.188 42.8837 20.524C42.5664 20.8413 42.165 21 41.6797 21C41.1944 21 40.793 20.8413 40.4757 20.524C40.1584 20.188 39.9997 19.7773 39.9997 19.292V7.728C39.9997 7.24267 40.1584 6.84133 40.4757 6.524C40.793 6.188 41.1944 6.02 41.6797 6.02C42.165 6.02 42.5664 6.188 42.8837 6.524C43.201 6.84133 43.3597 7.24267 43.3597 7.728V8.932L42.9397 8.848C43.1077 8.53067 43.341 8.19467 43.6397 7.84C43.9384 7.46667 44.3024 7.12133 44.7317 6.804C45.161 6.48667 45.637 6.23467 46.1597 6.048C46.6824 5.84267 47.2517 5.74 47.8677 5.74ZM77.0762 5.74C77.5615 5.74 77.9629 5.89867 78.2802 6.216C78.5975 6.53333 78.7562 6.944 78.7562 7.448V19.292C78.7562 19.7773 78.5975 20.188 78.2802 20.524C77.9629 20.8413 77.5615 21 77.0762 21C76.5909 21 76.1895 20.8413 75.8722 20.524C75.5549 20.188 75.3962 19.7773 75.3962 19.292V17.92L76.0122 18.172C76.0122 18.4147 75.8815 18.7133 75.6202 19.068C75.3589 19.404 75.0042 19.74 74.5562 20.076C74.1082 20.412 73.5762 20.7013 72.9602 20.944C72.3629 21.168 71.7095 21.28 71.0002 21.28C69.7122 21.28 68.5455 20.9533 67.5002 20.3C66.4549 19.628 65.6242 18.7133 65.0082 17.556C64.4109 16.38 64.1122 15.036 64.1122 13.524C64.1122 11.9933 64.4109 10.6493 65.0082 9.492C65.6242 8.316 66.4455 7.40133 67.4722 6.748C68.4989 6.076 69.6375 5.74 70.8882 5.74C71.6909 5.74 72.4282 5.86133 73.1002 6.104C73.7722 6.34667 74.3509 6.65467 74.8362 7.028C75.3402 7.40133 75.7229 7.784 75.9842 8.176C76.2642 8.54933 76.4042 8.86667 76.4042 9.128L75.3962 9.492V7.448C75.3962 6.96267 75.5549 6.56133 75.8722 6.244C76.1895 5.908 76.5909 5.74 77.0762 5.74ZM71.4202 18.2C72.2415 18.2 72.9602 17.9947 73.5762 17.584C74.1922 17.1733 74.6682 16.6133 75.0042 15.904C75.3589 15.1947 75.5362 14.4013 75.5362 13.524C75.5362 12.628 75.3589 11.8253 75.0042 11.116C74.6682 10.4067 74.1922 9.84667 73.5762 9.436C72.9602 9.02533 72.2415 8.82 71.4202 8.82C70.6175 8.82 69.9082 9.02533 69.2922 9.436C68.6762 9.84667 68.1909 10.4067 67.8362 11.116C67.5002 11.8253 67.3322 12.628 67.3322 13.524C67.3322 14.4013 67.5002 15.1947 67.8362 15.904C68.1909 16.6133 68.6762 17.1733 69.2922 17.584C69.9082 17.9947 70.6175 18.2 71.4202 18.2ZM85.0342 19.292C85.0342 19.7773 84.8662 20.188 84.5302 20.524C84.2129 20.8413 83.8116 21 83.3262 21C82.8596 21 82.4676 20.8413 82.1502 20.524C81.8329 20.188 81.6742 19.7773 81.6742 19.292V1.988C81.6742 1.50267 81.8329 1.10133 82.1502 0.783998C82.4862 0.447999 82.8969 0.28 83.3822 0.28C83.8676 0.28 84.2596 0.447999 84.5582 0.783998C84.8756 1.10133 85.0342 1.50267 85.0342 1.988V19.292ZM102.265 5.796L96.2168 20.02C96.0861 20.3747 95.8808 20.6547 95.6008 20.86C95.3394 21.0467 95.0501 21.14 94.7328 21.14C94.2288 21.14 93.8554 21 93.6128 20.72C93.3701 20.44 93.2488 20.0947 93.2488 19.684C93.2488 19.516 93.2768 19.3387 93.3328 19.152L100.305 2.408C100.454 2.03467 100.678 1.74533 100.977 1.54C101.294 1.33467 101.63 1.25067 101.985 1.288C102.321 1.288 102.629 1.39067 102.909 1.596C103.207 1.78267 103.422 2.05333 103.553 2.408L110.441 18.816C110.534 19.0587 110.581 19.2827 110.581 19.488C110.581 19.992 110.413 20.3933 110.077 20.692C109.759 20.9907 109.405 21.14 109.013 21.14C108.677 21.14 108.369 21.0373 108.089 20.832C107.827 20.6267 107.622 20.3467 107.473 19.992L101.453 5.964L102.265 5.796ZM97.0847 16.604L98.6248 13.384H106.185L106.717 16.604H97.0847ZM114.836 19.292C114.836 19.7773 114.677 20.188 114.36 20.524C114.042 20.8413 113.641 21 113.156 21C112.67 21 112.269 20.8413 111.952 20.524C111.634 20.188 111.476 19.7773 111.476 19.292V7.728C111.476 7.24267 111.634 6.84133 111.952 6.524C112.269 6.188 112.67 6.02 113.156 6.02C113.641 6.02 114.042 6.188 114.36 6.524C114.677 6.84133 114.836 7.24267 114.836 7.728V19.292ZM113.128 4.2C112.493 4.2 112.045 4.09733 111.784 3.892C111.522 3.68667 111.392 3.32267 111.392 2.8V2.268C111.392 1.72667 111.532 1.36267 111.812 1.176C112.11 0.970666 112.558 0.867999 113.156 0.867999C113.809 0.867999 114.266 0.970666 114.528 1.176C114.789 1.38133 114.92 1.74533 114.92 2.268V2.8C114.92 3.34133 114.78 3.71467 114.5 3.92C114.22 4.10667 113.762 4.2 113.128 4.2ZM128.405 6.02C128.89 6.02 129.291 6.188 129.609 6.524C129.926 6.84133 130.085 7.24267 130.085 7.728V14.84C130.085 16.8187 129.534 18.3867 128.433 19.544C127.331 20.7013 125.745 21.28 123.673 21.28C121.601 21.28 120.014 20.7013 118.913 19.544C117.83 18.3867 117.289 16.8187 117.289 14.84V7.728C117.289 7.24267 117.447 6.84133 117.765 6.524C118.082 6.188 118.483 6.02 118.969 6.02C119.454 6.02 119.855 6.188 120.173 6.524C120.49 6.84133 120.649 7.24267 120.649 7.728V14.84C120.649 15.9787 120.901 16.828 121.405 17.388C121.909 17.9293 122.665 18.2 123.673 18.2C124.699 18.2 125.465 17.9293 125.969 17.388C126.473 16.828 126.725 15.9787 126.725 14.84V7.728C126.725 7.24267 126.883 6.84133 127.201 6.524C127.518 6.188 127.919 6.02 128.405 6.02ZM132.89 6.3H139.526C139.974 6.3 140.348 6.44933 140.646 6.748C140.945 7.04667 141.094 7.42 141.094 7.868C141.094 8.29733 140.945 8.66133 140.646 8.96C140.348 9.24 139.974 9.38 139.526 9.38H132.89C132.442 9.38 132.069 9.23067 131.77 8.932C131.472 8.63333 131.322 8.26 131.322 7.812C131.322 7.38267 131.472 7.028 131.77 6.748C132.069 6.44933 132.442 6.3 132.89 6.3ZM135.886 2.8C136.372 2.8 136.764 2.968 137.062 3.304C137.38 3.62133 137.538 4.02267 137.538 4.508V16.968C137.538 17.2293 137.585 17.444 137.678 17.612C137.79 17.78 137.93 17.9013 138.098 17.976C138.285 18.0507 138.481 18.088 138.686 18.088C138.91 18.088 139.116 18.0507 139.302 17.976C139.489 17.8827 139.704 17.836 139.946 17.836C140.208 17.836 140.441 17.9573 140.646 18.2C140.87 18.4427 140.982 18.7787 140.982 19.208C140.982 19.7307 140.693 20.16 140.114 20.496C139.554 20.832 138.948 21 138.294 21C137.902 21 137.464 20.972 136.978 20.916C136.512 20.8413 136.064 20.6827 135.634 20.44C135.224 20.1787 134.878 19.7867 134.598 19.264C134.318 18.7413 134.178 18.0227 134.178 17.108V4.508C134.178 4.02267 134.337 3.62133 134.654 3.304C134.99 2.968 135.401 2.8 135.886 2.8ZM157.575 13.524C157.575 15.0547 157.229 16.408 156.539 17.584C155.867 18.7413 154.952 19.6467 153.795 20.3C152.656 20.9533 151.377 21.28 149.959 21.28C148.54 21.28 147.252 20.9533 146.095 20.3C144.956 19.6467 144.041 18.7413 143.351 17.584C142.679 16.408 142.343 15.0547 142.343 13.524C142.343 11.9933 142.679 10.6493 143.351 9.492C144.041 8.316 144.956 7.40133 146.095 6.748C147.252 6.076 148.54 5.74 149.959 5.74C151.377 5.74 152.656 6.076 153.795 6.748C154.952 7.40133 155.867 8.316 156.539 9.492C157.229 10.6493 157.575 11.9933 157.575 13.524ZM154.215 13.524C154.215 12.572 154.019 11.7507 153.627 11.06C153.253 10.3507 152.74 9.8 152.087 9.408C151.452 9.016 150.743 8.82 149.959 8.82C149.175 8.82 148.456 9.016 147.803 9.408C147.168 9.8 146.655 10.3507 146.263 11.06C145.889 11.7507 145.703 12.572 145.703 13.524C145.703 14.4573 145.889 15.2787 146.263 15.988C146.655 16.6787 147.168 17.22 147.803 17.612C148.456 18.004 149.175 18.2 149.959 18.2C150.743 18.2 151.452 18.004 152.087 17.612C152.74 17.22 153.253 16.6787 153.627 15.988C154.019 15.2787 154.215 14.4573 154.215 13.524Z" fill="#FF5900"/>
</svg>
