<svg width="188" height="26" viewBox="0 0 188 26" fill="none" xmlns="http://www.w3.org/2000/svg">
<path d="M8.016 20.232C8.128 22.444 7.344 25.02 4.096 25.02C1.94 25.02 0.372 23.648 0.232 21.492C0.12 18.748 0.0640001 15.892 0.0640001 13.036C0.0640001 6.344 2.052 1.08 9.388 1.08C16.752 1.08 18.768 6.344 18.768 13.036C18.768 15.892 18.712 18.748 18.572 21.492C18.46 23.648 16.864 25.02 14.68 25.02C11.488 25.02 10.648 22.416 10.76 20.232C9.556 20.54 9.248 20.54 8.016 20.232ZM11.796 12.588C10.676 11.748 9.192 11.552 7.792 11.496C7.148 11.468 7.148 12.448 7.624 12.504C8.996 12.588 10.144 12.84 11.46 13.54C11.852 13.764 12.3 12.896 11.796 12.588ZM23.9319 8.584C22.0279 8.584 20.2639 7.184 20.2639 4.692C20.2639 2.368 22.0559 0.799999 23.9319 0.799999C25.9759 0.799999 27.5999 2.76 27.5999 4.776C27.5999 6.848 26.0599 8.584 23.9319 8.584ZM20.1799 22.668C19.6479 19.364 19.6479 15.696 20.1799 12.392C20.3759 11.104 21.5519 10.04 23.9319 10.04C26.2279 10.04 27.3759 11.104 27.5999 12.392C28.1599 15.696 28.1599 19.364 27.5999 22.668C27.3759 23.984 26.2279 25.02 23.9319 25.02C21.5519 25.02 20.3759 23.984 20.1799 22.668ZM38.6771 24.376C37.5291 24.768 35.9891 25.02 34.5611 25.02C33.4411 25.02 32.5171 24.88 31.7611 24.572C30.0811 23.928 29.2411 22.948 28.8211 21.296C28.3171 19.224 28.4851 16.116 28.5411 11.244C28.5691 8.892 29.7171 7.324 32.9931 7.324C36.1851 7.324 37.3331 8.892 37.3331 11.244V17.096C37.3891 17.964 38.3971 17.908 38.4251 16.984V11.048C38.4251 8.976 39.7131 7.324 41.9811 7.324C44.2211 7.324 45.5371 8.976 45.5371 11.048V20.092C45.6771 21.968 46.2931 24.516 44.2491 24.992C43.3251 25.188 42.6811 25.272 42.0371 25.272C38.9851 25.272 38.9291 23.2 38.6771 22.248C38.5651 21.856 38.0611 22.024 38.1171 22.36C38.2291 22.976 38.4811 24.04 38.6771 24.376ZM48.8476 15.64C48.2036 15.64 47.6436 15.444 47.2516 15.22C46.3276 14.688 45.9076 13.652 45.9076 12.168C45.9076 9.956 47.0556 9.368 48.9316 9.032C48.9596 8.668 48.9596 8.304 48.9876 7.94C49.2116 5.084 50.3596 4.496 52.5716 4.496C54.7276 4.496 55.8756 5.084 56.1556 7.94C56.1556 7.968 56.1556 7.996 56.1556 8.024C57.3316 7.968 58.5076 8.052 59.1796 8.444C60.1036 8.976 60.5236 10.04 60.5236 11.524C60.5236 13.68 59.4036 14.492 57.4156 14.716L56.6596 14.8C56.6596 15.472 56.6316 16.088 56.5476 16.592C55.2596 16.928 54.1956 17.992 53.8876 18.748C53.7196 19.224 54.3076 19.392 54.4756 19.056C55.1476 17.768 56.4356 16.984 57.7236 17.096C59.3756 17.208 60.9436 18.468 60.7476 21.352C60.5796 23.844 57.8916 25.216 54.8676 25.216C49.4636 25.216 49.0156 21.576 48.8476 16.06C48.8476 15.92 48.8476 15.78 48.8476 15.64ZM60.7735 16.676C60.8015 11.216 64.3855 7.324 69.9015 7.324C75.4735 7.324 78.1335 12.056 78.1335 16.676C78.0775 21.352 74.8015 25.496 69.8175 25.496C64.6095 25.496 60.7735 21.716 60.7735 16.676ZM68.6135 18.244C68.3895 18.664 69.2015 19.084 69.5935 18.552C70.3495 17.432 70.5455 15.92 70.5735 14.52C70.6015 13.876 69.6495 13.904 69.6215 14.38C69.5095 15.752 69.2855 16.9 68.6135 18.244ZM92.1137 20.232C92.2257 22.444 91.4417 25.02 88.1937 25.02C86.0377 25.02 84.4697 23.648 84.3297 21.492C84.2177 18.748 84.1617 15.892 84.1617 13.036C84.1617 6.344 86.1497 1.08 93.4857 1.08C100.85 1.08 102.866 6.344 102.866 13.036C102.866 15.892 102.81 18.748 102.67 21.492C102.558 23.648 100.962 25.02 98.7777 25.02C95.5857 25.02 94.7457 22.416 94.8577 20.232C93.6537 20.54 93.3457 20.54 92.1137 20.232ZM95.8937 12.588C94.7737 11.748 93.2897 11.552 91.8897 11.496C91.2457 11.468 91.2457 12.448 91.7217 12.504C93.0937 12.588 94.2417 12.84 95.5577 13.54C95.9497 13.764 96.3977 12.896 95.8937 12.588ZM111.866 19.84C111.81 20.428 111.782 20.988 111.726 21.548C111.502 23.648 110.354 25.02 108.03 25.02C105.65 25.02 104.418 23.648 104.194 21.548C103.998 19.7 103.914 17.544 103.858 15.696V10.684C103.858 8.668 105.202 7.324 107.218 7.324C108.814 7.324 110.438 7.772 111.026 9.032C109.57 10.796 108.842 12.84 109.066 15.024C109.15 15.696 109.906 15.64 109.878 15.08C109.654 12.224 111.222 9.228 113.042 8.136C113.854 7.66 114.75 7.324 115.674 7.324C117.214 7.324 118.81 7.828 119.846 8.976C121.414 10.684 121.526 12.728 121.498 14.968C121.47 17.068 121.274 19.588 120.826 21.548C120.35 23.648 119.286 25.02 116.85 25.02C114.386 25.02 113.126 23.648 112.874 21.548C112.818 21.072 112.762 20.568 112.734 20.064C112.734 19.364 112.062 19.28 111.866 19.84ZM126.116 8.584C124.212 8.584 122.448 7.184 122.448 4.692C122.448 2.368 124.24 0.799999 126.116 0.799999C128.16 0.799999 129.784 2.76 129.784 4.776C129.784 6.848 128.244 8.584 126.116 8.584ZM122.364 22.668C121.832 19.364 121.832 15.696 122.364 12.392C122.56 11.104 123.736 10.04 126.116 10.04C128.412 10.04 129.56 11.104 129.784 12.392C130.344 15.696 130.344 19.364 129.784 22.668C129.56 23.984 128.412 25.02 126.116 25.02C123.736 25.02 122.56 23.984 122.364 22.668ZM148.169 20.064H148.141C148.113 20.568 148.085 21.072 148.029 21.548C147.805 23.648 146.489 25.02 144.053 25.02C141.589 25.02 140.329 23.648 140.077 21.548C140.021 21.072 139.965 20.568 139.937 20.064C139.937 19.364 139.265 19.28 139.069 19.84C139.013 20.428 138.985 20.988 138.929 21.548C138.705 23.648 137.557 25.02 135.233 25.02C132.853 25.02 131.621 23.648 131.397 21.548C131.201 19.7 131.117 17.544 131.061 15.696V10.684C131.061 8.668 132.405 7.324 134.421 7.324C136.017 7.324 137.641 7.772 138.229 9.032C136.773 10.796 136.045 12.84 136.269 15.024C136.353 15.696 137.109 15.64 137.081 15.08C136.857 12.224 138.425 9.2 140.245 8.136C141.029 7.632 141.953 7.324 142.877 7.324C144.417 7.324 146.153 7.8 147.217 8.976C145.985 10.544 145.453 12.476 145.565 14.464C145.705 15.136 146.349 14.94 146.349 14.436C146.181 11.636 147.861 9.06 149.205 8.136C149.905 7.66 150.997 7.352 152.145 7.352C153.937 7.352 155.393 7.996 156.457 9.508C157.297 10.74 157.465 11.888 157.437 16.06C157.409 18.272 157.297 19.448 157.017 21.548C156.737 23.648 155.533 25.02 153.097 25.02C150.633 25.02 149.429 23.648 149.177 21.548C149.121 21.072 149.065 20.596 149.037 20.092C149.037 19.28 148.169 19.252 148.169 20.064ZM168.975 22.948C167.715 24.852 165.783 25.496 163.599 25.496C160.407 25.496 157.887 23.816 157.887 20.736C157.887 17.936 160.043 16.172 162.899 15.612C165.503 15.08 167.323 13.904 168.247 12.504C168.611 11.944 167.799 11.384 167.435 11.916C166.343 13.512 164.159 14.688 161.751 14.688C159.567 14.688 158.419 13.54 158.419 11.972C158.419 9.144 162.087 7.324 166.427 7.324C170.879 7.324 173.427 8.892 174.575 12.14C175.555 14.884 175.527 19.308 174.743 22.724C174.379 24.376 173.427 25.244 171.831 25.244C170.263 25.244 169.311 24.46 168.975 22.948ZM164.215 20.96C165.559 20.792 166.819 19.896 167.855 19.028C168.415 18.58 167.715 17.908 167.351 18.188C166.287 19.084 165.279 19.672 163.795 20.036C163.347 20.148 163.571 21.044 164.215 20.96ZM183.884 18.692C185.844 18.888 187.104 19.392 187.104 21.604C187.104 24.6 182.988 25.048 180.16 25.02C177.78 24.992 176.38 23.368 176.184 21.268C175.652 15.948 175.652 10.096 176.184 4.804C176.38 2.732 177.556 1.08 179.936 1.08C182.232 1.08 183.408 2.732 183.604 4.804C184.024 8.892 184.164 14.436 183.884 18.692Z" fill="#FF823F"/>
</svg>
